<svg xmlns="http://www.w3.org/2000/svg" width="265px" height="80px" viewBox="0 0 265 80"><defs><style>.a{fill:#d9272e;}</style></defs><polygon class="a" points="143.77 0.35 140.34 22.99 140.91 22.91 147.91 0.35 157.55 0.35 148.05 25.43 149.55 57.08 139.84 57.08 139.91 29.55 139.34 29.55 135.13 57.08 125.7 57.08 134.34 0.35 143.77 0.35"/><path class="a" d="M127.27,19.91h-9.71l1.57-10a7.61,7.61,0,0,0,.07-1,1.27,1.27,0,0,0-1.43-1.4c-1.21,0-1.71.84-1.93,2.38l-1.36,8.8a8.48,8.48,0,0,0-.07,1.26c0,.91.36,1.54,1.78,2.38l5.57,3.42a7.06,7.06,0,0,1,3.57,6.08,22.82,22.82,0,0,1-.29,2.51l-1.79,11.81c-1.5,9.71-2.86,11.32-13.14,11.32C103,57.5,100,56.66,100,51.63a37.73,37.73,0,0,1,.57-5.45l1.86-12.51h9.78l-2.07,13.83a7,7,0,0,0-.15.91A1.36,1.36,0,0,0,111.5,50c1.14,0,1.64-.84,1.86-2.44l1.85-12c.07-.63.14-1,.14-1.12,0-1-.36-1.54-1.78-2.45l-5.86-3.63a6.86,6.86,0,0,1-3.43-6.08,23,23,0,0,1,.36-2.8l1.21-8.1C107.35,1.67,109,0,118.92,0c7.14,0,10.28.7,10.28,5.87a40.18,40.18,0,0,1-.64,5.45Z" transform="translate(0 0)"/><polygon class="a" points="167.69 0.35 167.04 22.22 172.83 0.35 182.04 0.35 170.26 34.16 166.76 57.08 156.69 57.08 160.19 34.16 158.26 0.35 167.69 0.35"/><polygon class="a" points="220.52 0.35 211.88 57.08 202.1 57.08 210.74 0.35 220.52 0.35"/><path class="a" d="M186,49.67c3.28.21,3.36-.63,3.78-3.35l5.36-35.14c.14-1.12.29-1.75.29-2,0-1.33-.86-1.54-3-1.47ZM195.89.35c6.57,0,9.57.77,9.57,5.73a46.11,46.11,0,0,1-.57,5.8l-5.14,33.6c-1.5,9.64-3,11.6-12.49,11.6H175.18L183.82.35Z" transform="translate(0 0)"/><polygon class="a" points="232.51 0.35 228.8 38.77 229.3 38.77 237.58 0.35 246.79 0.35 231.87 57.08 220.59 57.08 223.09 0.35 232.51 0.35"/><polygon class="a" points="265 0.35 263.86 7.75 257.93 7.75 255.72 22.22 261.64 22.22 260.5 29.69 254.57 29.69 251.58 49.6 257.43 49.6 256.29 57.08 240.65 57.08 249.29 0.35 265 0.35"/><path class="a" d="M57.45,47.83c-18.5,6.6-36.93,2.32-41.18-9.56S23.6,11.41,42.1,4.8,79,2.48,83.27,14.36,76,41.23,57.45,47.83M34.21,4.23C11,12.52-3.92,30.21.91,43.75s27.57,17.8,50.8,9.51,38.13-26,33.3-39.52S57.43-4.06,34.21,4.23" transform="translate(0 0)"/><path class="a" d="M62.82,4A3.67,3.67,0,0,1,65,4.49l2.61,1.65c-.16.36-1.27,3-1.63,4-.11.3-14,15.81-14.6,16.5l-.15.18,1,1.13a11,11,0,0,1-1.1,1.11c-.18.08-1.58.11-2.06.16l1.06.4a31.67,31.67,0,0,1,3.75,1.7,9.58,9.58,0,0,1,1.57,1.05,6.39,6.39,0,0,0,.83.51l3.39,2,.13.07c.08-.3.78-3,1.06-4,0-.11.18-.13.18-.13L63.86,32s.1.07.11.12c.35.91,1.21,3.18,1.29,3.43.35-.3,3.8-3.29,5.23-4.5a2.05,2.05,0,0,1,1-.39,1.88,1.88,0,0,1,1.26.21A6.28,6.28,0,0,1,74,31.7a6.81,6.81,0,0,1-1.74,1.85c-.46.33-.87.73-1.29,1.1l-4.69,4.09c.11.07.21.13.3.21a2,2,0,0,1,.3.28.2.2,0,0,1-.08.34,7.08,7.08,0,0,1-2.26.67.49.49,0,0,0-.26.11l-5.41,4.77a2.83,2.83,0,0,1-1.54.73.64.64,0,0,1-.26,0l-1.47-.45a.54.54,0,0,1-.32-.88,2.74,2.74,0,0,1,.45-.49l4.6-4-9.11-.54a2.68,2.68,0,0,1-.63-.15L43,36.95c-.31-.1-.61-.23-.92-.34a.15.15,0,0,0-.13,0L40.65,38c.21.24.41.49.63.72a.3.3,0,0,1,.05.43c-.16.23-.3.48-.45.71a.35.35,0,0,1-.32.14l-1.9,0a.36.36,0,0,0-.21.1c-.17.16-.33.34-.5.51s-.07.13,0,.23A10.66,10.66,0,0,1,38.18,42a.56.56,0,0,1-.48.59,1.75,1.75,0,0,1-1.36-.09L32.83,46a.55.55,0,0,1-.16.11L29.8,47.33a.37.37,0,0,1-.21,0c-1-.27-2-.48-3-.83-.33-.12-.54-.62-.59-.79a1.6,1.6,0,0,1,.14-1.19c.17-.31,3-3.47,4.26-4.76l1.23-1.3-.13,0c-.74-.25-2.5-.89-2.6-1-.29-.28-.39-.56,0-.86l-.69-.45c0,.07.23,3.31.19,3.34-.3.23-1,.66-1,.66s0-.08,0-.12c.08-1.37.16-2.74.25-4.12a.22.22,0,0,0-.12-.23,2.37,2.37,0,0,1-.86-.74.37.37,0,0,0-.35-.2c-.22,0-.74-.07-.8-.08l.92-1.8s.45.57.67.83a1.5,1.5,0,0,0,1.2.39.18.18,0,0,0,.2-.11L30,31.34l.79.65L29.17,34.2h.13c1,0,2,.07,3.07.13a15.3,15.3,0,0,1,2.68.3.19.19,0,0,0,.13,0l.36-.2-.13,0a9.49,9.49,0,0,1-2-.88,7.29,7.29,0,0,1-3.69-4.67.4.4,0,0,1,0-.32,1.91,1.91,0,0,1,1-.79C31.2,27.56,34,27,35,26.79a2.3,2.3,0,0,1,1.13,0s.09,0,.13,0c.47-.23.92-.48,1.39-.68a3.23,3.23,0,0,1,1.53-.3c-.13-.11-.25-.18-.35-.28a.53.53,0,0,1,0-.89s0,0,0,0L38,24.08c-.13.5-.26,1-.36,1.46-.05.27-.15.43-.44.44h0s0-.09,0-.14c.14-.66.28-1.31.43-2a.17.17,0,0,0-.06-.2,2.87,2.87,0,0,1-.38-.35,7.73,7.73,0,0,1-.61-.77c-.15-.22-.07-.37.18-.46l.39-.14-1.32-1.5,1.14-1.19,0,.09c.31.75.62,1.49.92,2.25.06.17.14.26.33.24a1.12,1.12,0,0,1,.3,0,.23.23,0,0,0,.22-.08L41,19.52l.24-.23.48,1.49-1.92,1.15.5.08a.43.43,0,0,0,.36-.06,1,1,0,0,1,.31-.14.5.5,0,0,1,.67.29.26.26,0,0,0,.17.11c.64.12,1.29.22,1.94.35s1.07.25,1.59.39c.1,0,.14,0,.21-.05L58.9,6.46A7.8,7.8,0,0,1,61,4.7,5,5,0,0,1,62.82,4" transform="translate(0 0)"/><polygon class="a" points="231.25 80 232.93 80 236.14 67.8 239.34 80 240.99 80 245.19 64.98 243.48 64.98 240.11 77.71 236.77 64.98 235.51 64.98 232.22 77.71 228.81 64.98 227.09 64.98 231.25 80"/><path class="a" d="M215.88,65a7.42,7.42,0,0,0-7.57,7.55v0A7.57,7.57,0,1,0,215.88,65Zm0,13.59a5.93,5.93,0,0,1-6-6.08v0a6,6,0,1,1,6,6.1Z" transform="translate(0 0)"/><polygon class="a" points="200.23 80 201.91 80 201.91 66.46 205.63 66.46 205.63 64.98 196.54 64.98 196.54 66.46 200.23 66.46 200.23 80"/><path class="a" d="M183.61,75.71A4.28,4.28,0,0,0,188.15,80a4.23,4.23,0,0,0,4.49-4.26c0-2.67-2.16-3.43-3.53-4-2.2-.75-3.63-1.18-3.61-2.94a2.62,2.62,0,0,1,5.22-.12h1.6A3.9,3.9,0,0,0,188.21,65c-2.22,0-4.35,1.43-4.31,4,0,2.75,2.53,3.49,3.7,3.85,1.68.55,3.43,1,3.43,3a2.84,2.84,0,0,1-2.9,2.77,2.92,2.92,0,0,1-2.9-2.92Z" transform="translate(0 0)"/><path class="a" d="M177.75,67.23A7.39,7.39,0,0,0,171.85,65h-4.48V80h4.56c5.05,0,7.63-3,7.63-7.53A7.51,7.51,0,0,0,177.75,67.23ZM172,78.52h-3V66.46h3a5.73,5.73,0,0,1,4.4,1.69,6.4,6.4,0,0,1,1.46,4.39C177.88,76.15,175.87,78.52,172,78.52Z" transform="translate(0 0)"/><polygon class="a" points="155.61 80 163.01 80 163.01 78.52 157.29 78.52 157.29 64.98 155.61 64.98 155.61 80"/><path class="a" d="M145.38,65h-1.62l-6.27,15h1.8L141,75.78h7L149.76,80h1.82Zm-3.86,9.42,3-7.53,3,7.53Z" transform="translate(0 0)"/><path class="a" d="M131.58,72a3.37,3.37,0,0,0,2-3.19A3.41,3.41,0,0,0,132,65.69a5.06,5.06,0,0,0-3-.71h-4V80h4.14a5.61,5.61,0,0,0,3.23-.67,3.81,3.81,0,0,0,2-3.51A3.85,3.85,0,0,0,131.58,72Zm-4.87-5.55h2.17a4.08,4.08,0,0,1,1.87.35A2.27,2.27,0,0,1,132,68.94a2.3,2.3,0,0,1-1.22,2.24,4.2,4.2,0,0,1-1.77.3H126.7Zm4.55,11.78a5,5,0,0,1-1.83.28H126.7V72.9h2.42a4.77,4.77,0,0,1,2.11.3,2.67,2.67,0,0,1,1.6,2.54A2.56,2.56,0,0,1,131.25,78.24Z" transform="translate(0 0)"/><rect class="a" x="117.32" y="64.98" width="1.66" height="15.02"/><polygon class="a" points="102.91 80 102.91 73.14 110.16 73.14 110.16 80 111.84 80 111.84 64.98 110.16 64.98 110.16 71.66 102.91 71.66 102.91 64.98 101.25 64.98 101.25 80 102.91 80"/></svg>