<?xml version="1.0" encoding="UTF-8" standalone="no"?>
<!-- Created with Inkscape (http://www.inkscape.org/) -->

<svg
   width="273.91403mm"
   height="48mm"
   viewBox="0 0 273.91403 48"
   version="1.1"
   id="svg1"
   inkscape:version="1.3 (0e150ed6c4, 2023-07-21)"
   sodipodi:docname="logo.svg"
   xmlns:inkscape="http://www.inkscape.org/namespaces/inkscape"
   xmlns:sodipodi="http://sodipodi.sourceforge.net/DTD/sodipodi-0.dtd"
   xmlns="http://www.w3.org/2000/svg"
   xmlns:svg="http://www.w3.org/2000/svg">
  <sodipodi:namedview
     id="namedview1"
     pagecolor="#ffffff"
     bordercolor="#000000"
     borderopacity="0.25"
     inkscape:showpageshadow="2"
     inkscape:pageopacity="0.0"
     inkscape:pagecheckerboard="true"
     inkscape:deskcolor="#d1d1d1"
     inkscape:document-units="mm"
     inkscape:zoom="1.0141844"
     inkscape:cx="529.98253"
     inkscape:cy="103.03846"
     inkscape:window-width="1920"
     inkscape:window-height="1011"
     inkscape:window-x="0"
     inkscape:window-y="32"
     inkscape:window-maximized="1"
     inkscape:current-layer="layer1" />
  <defs
     id="defs1" />
  <g
     inkscape:label="Layer 1"
     inkscape:groupmode="layer"
     id="layer1"
     transform="translate(-19.115434,-92.382712)">
    <g
       id="g2"
       transform="matrix(0.67582964,0,0,0.67582964,-28.448657,34.804843)">
      <path
         d="m 97.930004,92.099506 c -0.482349,-3.890336 -3.791865,-6.903672 -7.812981,-6.903672 -2.60484,0 -4.907347,1.270878 -6.342086,3.220277 -0.725447,-0.824686 -1.773999,-1.354732 -2.957178,-1.354732 -2.180957,0 -3.948802,1.767845 -3.948802,3.946494 0,0.176169 0.02923,0.343876 0.05077,0.51466 -0.290794,-0.05616 -0.59082,-0.09155 -0.898539,-0.09155 -2.630227,0 -4.76118,2.132491 -4.76118,4.761949 0,2.630996 2.131722,4.763488 4.76118,4.763488 h 19.740933 c 2.597916,0 4.704259,-2.107106 4.704259,-4.705022 -7.7e-4,-1.813233 -1.035481,-3.367213 -2.53638,-4.151896 z m -3.811867,-1.145484 c -0.185401,-0.108471 -0.354646,-0.239251 -0.549278,-0.326182 -0.194632,-0.08693 -0.376186,-0.200017 -0.58082,-0.261561 -0.395418,-0.146935 -0.802376,-0.264638 -1.217797,-0.324643 -0.208479,-0.03 -0.41542,-0.06539 -0.625438,-0.06077 -0.220789,-0.0069 -0.401573,-0.01846 -0.622362,0.01077 -0.212326,0.02539 -0.440038,0.02462 -0.632362,0.08001 -0.199248,0.05154 -0.398496,0.06924 -0.593128,0.146935 -0.396188,0.124626 -0.77699,0.286948 -1.140098,0.483119 -0.358493,0.205402 -0.691598,0.450039 -1.001625,0.723139 l -0.433114,0.440807 -0.380802,0.485427 -0.17617,0.226173 -0.243097,-0.177707 -0.466194,-0.338491 c -0.158476,-0.106163 -0.340799,-0.173092 -0.510814,-0.26233 -0.164629,-0.102317 -0.363877,-0.114626 -0.543123,-0.178477 -0.180016,-0.07001 -0.371571,-0.0877 -0.562357,-0.103086 l -0.285409,-0.03077 c -0.03539,-0.01846 -0.186939,0.01231 -0.276178,0.01462 -0.200786,0.02539 -0.420805,0.02539 -0.608514,0.06924 l -0.528507,0.162322 c -0.176938,0.05847 -0.340798,0.173861 -0.513121,0.255407 -0.180015,0.07616 -0.321566,0.209248 -0.472348,0.330028 -0.152321,0.117703 -0.304642,0.239252 -0.416959,0.396957 -0.115395,0.155398 -0.269254,0.282332 -0.356185,0.456963 l -0.288486,0.504659 -0.192324,0.551586 c -0.08308,0.180015 -0.07155,0.38234 -0.106163,0.573895 l -0.03924,0.292333 c -0.01,0.05539 0.01308,0.192325 0.01769,0.28541 l 0.05539,0.618514 0.01539,0.177708 -0.18617,0.01539 -0.465425,0.04077 -0.452347,0.127703 c -0.14232,0.06385 -0.283101,0.139243 -0.42619,0.20771 l -0.381572,0.291564 -0.320797,0.36157 c -0.08078,0.139242 -0.168476,0.276946 -0.246175,0.420036 -0.05308,0.153859 -0.113856,0.30618 -0.166168,0.462347 l -0.08001,0.49235 0.02154,-0.50312 c 0.03231,-0.164629 0.07693,-0.32849 0.120779,-0.493889 0.06616,-0.156167 0.144628,-0.307718 0.21925,-0.463886 l 0.306949,-0.41542 0.386957,-0.3508 c 0.148474,-0.09001 0.296179,-0.18617 0.450039,-0.270792 0.164629,-0.06231 0.331567,-0.123088 0.500043,-0.1754 l 0.333105,-0.04693 -0.06385,-0.44927 c -0.01154,-0.113086 -0.03693,-0.180015 -0.03693,-0.332336 l 0.02308,-0.324643 c 0.02616,-0.215404 0.0054,-0.440038 0.08385,-0.646979 l 0.183092,-0.632362 0.303104,-0.586974 c 0.09847,-0.197709 0.263868,-0.3508 0.394649,-0.527738 0.128473,-0.182323 0.298487,-0.324643 0.47004,-0.463117 0.169246,-0.14155 0.331568,-0.293871 0.533893,-0.387725 0.197709,-0.100778 0.377725,-0.228482 0.592358,-0.305411 l 0.656211,-0.206172 c 0.215403,-0.05154 0.414651,-0.05308 0.621592,-0.08232 0.117702,-0.0062 0.173092,-0.03308 0.342337,-0.02231 l 0.333106,0.02769 c 0.222327,0.01462 0.444653,0.03385 0.65621,0.108471 0.210788,0.07231 0.43773,0.101547 0.628516,0.21848 0.19694,0.105394 0.405419,0.189248 0.586974,0.314643 l 0.29541,0.223096 0.244636,-0.301564 0.485427,-0.476195 c 0.346953,-0.293102 0.716215,-0.555433 1.113942,-0.773144 0.197709,-0.110009 0.410804,-0.190016 0.615438,-0.285409 0.20694,-0.09462 0.430806,-0.136166 0.64467,-0.205402 0.212326,-0.07155 0.450039,-0.08462 0.673135,-0.127704 0.23079,-0.0477 0.439269,-0.03308 0.657749,-0.04693 0.210019,-0.01692 0.462348,0.0038 0.673135,0.02385 0.223097,0.0085 0.442346,0.05616 0.660827,0.100009 0.43773,0.08539 0.861612,0.233097 1.2578,0.428499 0.206941,0.08155 0.386188,0.216172 0.576973,0.322335 0.192324,0.10924 0.356954,0.258484 0.535431,0.384649 0.346184,0.277716 0.638517,0.599282 0.907001,0.938542 -0.307719,-0.30618 -0.639286,-0.589282 -0.990085,-0.827764 z"
         fill="#330f33"
         data-fill-palette-color="accent"
         id="path3"
         style="fill:#330f33;fill-opacity:1;stroke-width:0.769297" />
      <path
         d="m 145.33794,147.15118 c 0.13539,-0.69853 0.21079,-1.41936 0.21079,-2.15711 0,-6.20131 -5.02659,-11.22713 -11.22559,-11.22713 -3.79032,0 -7.13292,1.88324 -9.16694,4.76042 -1.37089,-1.21857 -3.17104,-1.96402 -5.14968,-1.96402 -4.28652,0 -7.7622,3.47568 -7.7622,7.76375 0,0.59928 0.0754,1.18317 0.20463,1.74476 -2.76486,0.0477 -4.99351,2.29328 -4.99351,5.06967 0,2.80409 2.27404,5.07813 5.07736,5.07813 h 29.69795 c 2.80485,0 5.0789,-2.27404 5.0789,-5.07813 -7.7e-4,-1.62937 -0.78238,-3.0618 -1.97171,-3.99034 z m -3.48953,-0.54467 c -0.0777,-0.39003 -0.31157,-0.71006 -0.45697,-1.0624 -0.0869,-0.17001 -0.15309,-0.34772 -0.25694,-0.5085 l -0.33695,-0.46466 c -0.22618,-0.30695 -0.42773,-0.63082 -0.72314,-0.87623 -0.2808,-0.25463 -0.51235,-0.56158 -0.82315,-0.77545 l -0.92547,-0.64621 -1.01854,-0.47158 c -0.3308,-0.17693 -0.71699,-0.20463 -1.0701,-0.31541 -0.18001,-0.0408 -0.35618,-0.10308 -0.5385,-0.1277 l -0.55698,-0.0323 -0.55389,-0.0431 c -0.0816,-0.004 -0.20848,-0.0223 -0.2531,-0.0162 l -0.29156,0.0215 -0.58467,0.0462 -0.52927,0.10539 c -0.35003,0.0492 -0.69853,0.19079 -1.04702,0.30003 -0.3408,0.13309 -0.67621,0.28695 -1.00085,0.45235 -0.30926,0.19771 -0.64006,0.36157 -0.91854,0.60236 -0.30157,0.21078 -0.56928,0.46081 -0.82623,0.7216 -0.27387,0.24386 -0.47389,0.56005 -0.71929,0.83084 l -0.3708,0.41311 -0.40388,-0.38003 -0.40235,-0.37542 c -0.12155,-0.14463 -0.29771,-0.21233 -0.4485,-0.31541 -0.15539,-0.0969 -0.30541,-0.20617 -0.48773,-0.24772 -0.17463,-0.0554 -0.34311,-0.1277 -0.52005,-0.17693 l -0.54543,-0.0616 -0.13693,-0.0169 -0.0331,-0.008 -0.0692,0.007 -0.31233,0.0308 c -0.21156,0.0162 -0.42619,0.0339 -0.57082,0.10001 -0.16232,0.0608 -0.33003,0.0769 -0.49389,0.16386 l -0.49389,0.25541 c -0.14847,0.10847 -0.29002,0.23002 -0.43542,0.3431 -0.16232,0.10155 -0.25156,0.27233 -0.38234,0.40619 -0.13386,0.13309 -0.23233,0.2908 -0.31464,0.45927 -0.0854,0.16463 -0.20387,0.31695 -0.24772,0.50005 -0.0538,0.1777 -0.13539,0.3531 -0.17617,0.53543 l -0.0746,0.56158 c -0.0323,0.14001 0.0162,0.40004 0.02,0.59236 l 0.009,0.43081 -0.43311,-0.0562 -0.47927,-0.0623 -0.24079,-0.0339 c -0.0254,-0.005 -0.11232,-0.0115 -0.0885,-0.0162 l -0.13078,0.0108 c -0.33542,0.0431 -0.72545,0.008 -1.01394,0.11386 l -0.45773,0.12924 c -0.15616,0.0269 -0.30156,0.11463 -0.44696,0.18771 l -0.44465,0.22079 c -0.14463,0.08 -0.26695,0.19386 -0.40388,0.28771 -0.12925,0.10463 -0.27695,0.18925 -0.39465,0.30849 l -0.33696,0.3708 c -0.11462,0.12309 -0.23617,0.24387 -0.31079,0.39773 l -0.26618,0.43311 c -0.18386,0.28849 -0.24848,0.6316 -0.38772,0.94778 -0.06,0.16309 -0.0662,0.33695 -0.10078,0.5062 l -0.0869,0.51696 0.0177,-0.52466 c 0.0138,-0.1754 -0.003,-0.35618 0.0377,-0.52927 0.0977,-0.33696 0.14078,-0.70237 0.30156,-1.02163 l 0.23541,-0.48466 c 0.0677,-0.17078 0.17847,-0.31002 0.28925,-0.45542 l 0.32695,-0.43388 c 0.11463,-0.14232 0.2631,-0.25003 0.39388,-0.37619 0.13925,-0.1177 0.26541,-0.25541 0.41773,-0.35926 l 0.47466,-0.27772 c 0.16078,-0.0908 0.31387,-0.1954 0.50081,-0.2431 l 0.54159,-0.18155 c 0.36926,-0.14001 0.69852,-0.11617 1.05009,-0.18309 l 0.13001,-0.0162 c 0.11231,-0.005 0.11078,0.004 0.17155,0.005 l 0.27926,0.0185 0.0892,0.007 c -0.008,-0.0769 -0.0169,-0.15001 -0.0123,-0.24925 l 0.0508,-0.68852 c 0.0369,-0.22694 0.11539,-0.44619 0.17463,-0.67006 0.0469,-0.23002 0.1754,-0.42696 0.27772,-0.63467 0.10154,-0.21079 0.21771,-0.40926 0.37541,-0.58389 0.15309,-0.1731 0.27156,-0.38388 0.46235,-0.52159 0.17617,-0.14847 0.35234,-0.30618 0.53774,-0.44619 l 0.61236,-0.34388 c 0.20463,-0.11231 0.46004,-0.1677 0.69083,-0.24617 0.24925,-0.0916 0.45388,-0.10616 0.65852,-0.12463 l 0.31387,-0.0331 0.0777,-0.009 c 0.0362,-0.002 -0.0223,-0.002 0.0877,-0.005 l 0.0462,0.004 0.1754,0.0169 0.70313,0.0777 c 0.22695,0.0585 0.44927,0.14462 0.67237,0.21771 0.23079,0.0608 0.43004,0.18924 0.62928,0.31156 0.19848,0.12617 0.41773,0.22541 0.58005,0.40004 l 0.0931,0.0854 c 0.1454,-0.17848 0.29618,-0.35465 0.46773,-0.50851 0.29387,-0.29387 0.60082,-0.57082 0.94316,-0.8093 0.32003,-0.26771 0.69314,-0.45388 1.04701,-0.66775 0.36927,-0.18463 0.74853,-0.36311 1.13856,-0.49542 0.40004,-0.11386 0.78546,-0.25541 1.21395,-0.30695 l 0.62544,-0.0985 0.58544,-0.0269 0.29156,-0.0138 c 0.15001,-0.007 0.21925,0.0162 0.33234,0.0223 l 0.61544,0.0662 0.61082,0.0769 c 0.20155,0.0392 0.39388,0.11617 0.59082,0.17386 0.38465,0.14386 0.7993,0.20387 1.1524,0.41696 l 1.07548,0.57928 0.9547,0.75238 c 0.31772,0.25079 0.55466,0.59005 0.83007,0.88161 0.28387,0.28849 0.46696,0.65082 0.6716,0.99624 l 0.30464,0.5162 c 0.09,0.17694 0.14463,0.37541 0.21848,0.56082 0.11539,0.38157 0.32233,0.73775 0.35849,1.13009 l 0.17617,1.16164 z"
         fill="#330f33"
         data-fill-palette-color="accent"
         id="path7"
         style="fill:#330f33;fill-opacity:1;stroke-width:0.769297" />
      <path
         d="m 130.10509,115.44383 c 2.6133,-2.00171 3.10719,-5.74819 1.10471,-8.36149 -2.01325,-2.61946 -5.75973,-3.11027 -8.37226,-1.10241 -2.61331,2.00633 -3.10719,5.74665 -1.09394,8.36534 2.00555,2.61253 5.74665,3.10642 8.36149,1.09856 z"
         fill="#330f33"
         data-fill-palette-color="accent"
         id="path4"
         style="fill:#330f33;fill-opacity:1;stroke-width:0.769297" />
      <path
         d="m 138.59813,120.42579 -11.53561,1.29165 -6.41517,-4.32498 c 0.43234,-3.2249 -2.55638,-6.59673 -4.35653,-9.22695 l 1.6186,5.84204 c -0.04,-0.0339 -0.0746,-0.0762 -0.11463,-0.10847 l -3.21874,-8.0507 4.43962,-12.969576 -3.27413,-1.327807 -6.22438,13.341923 c -0.24464,0.60466 -0.24618,1.28088 -0.005,1.88477 l 2.67023,6.68366 c -0.003,0.002 -0.007,0.004 -0.01,0.006 l -7.68912,4.37115 6.58749,-4.92658 -2.48483,-5.76357 c -0.0339,-0.0862 -0.0492,-0.1754 -0.0769,-0.26233 -3.33875,1.1724 -7.23832,3.42721 -10.793241,5.74972 -4.583472,2.99257 -4.575779,7.5245 -3.988805,10.37628 l -8.005306,2.52099 -12.650321,-8.53228 -2.69254,3.50107 4.931194,4.25191 13.081128,5.09121 6.790586,-2.4656 -6.727503,3.56108 -13.775034,-5.36123 -1.86093,4.00496 14.398165,7.73836 c 0.422344,0.19694 0.876229,0.29464 1.329345,0.29464 0.508505,0 1.015472,-0.12155 1.476281,-0.36696 l 13.044201,-6.99522 -0.005,-0.008 c 0.0438,-0.0231 0.0908,-0.0408 0.1354,-0.0646 l 13.96428,-7.93992 c 0.29157,-0.16539 0.55928,-0.35849 0.80392,-0.57004 l 7.12292,4.79964 c 0.42004,0.28156 0.91162,0.43081 1.41012,0.43081 0.14848,0 0.29695,-0.0115 0.44465,-0.0385 l 12.27568,-2.96025 z"
         fill="#330f33"
         data-fill-palette-color="accent"
         id="path5"
         style="fill:#330f33;fill-opacity:1;stroke-width:0.769297" />
    </g>
    <path
       style="font-size:96px;font-family:Pacifico;-inkscape-font-specification:Pacifico;white-space:pre;fill:#330f33;stroke-width:0.514;stroke-dasharray:none;fill-opacity:1"
       d="m 93.82693,135.40018 q -6.561151,0 -10.507708,-2.4666 -3.946557,-2.51593 -3.946557,-7.64645 0,-2.71326 0.937307,-4.14389 0.937308,-1.43062 2.76259,-1.43062 1.331963,0 2.170607,0.69064 0.838643,0.69065 0.838643,1.77596 0,0.98663 -0.147996,1.72661 0,0.19733 -0.09866,0.69065 -0.04933,0.49332 -0.04933,1.03597 0,2.21994 2.219939,3.30524 2.26927,1.08531 6.314491,1.08531 4.193217,0 6.561154,-1.47996 2.36794,-1.52929 2.36794,-4.24255 0,-1.67729 -1.08531,-2.86125 -1.0853,-1.2333 -2.71326,-2.02261 -1.627955,-0.83865 -4.587873,-2.02261 -3.798561,-1.47996 -6.215827,-2.81193 -2.367934,-1.33196 -4.094553,-3.60123 -1.677287,-2.3186 -1.677287,-5.72251 0,-3.5519 1.874615,-6.314488 1.923947,-2.76259 5.475848,-4.29188 3.601233,-1.529291 8.435766,-1.529291 3.601241,0 6.610491,1.085301 3.00925,1.03597 4.7852,3.20658 1.82528,2.17061 1.82528,5.327848 0,3.10792 -0.93731,4.68654 -0.93731,1.57862 -2.76259,1.57862 -1.28263,0 -2.1706,-0.78931 -0.83865,-0.78931 -0.83865,-1.87461 0,-0.93731 0.148,-1.72662 0.14799,-1.47996 0.14799,-1.87462 0,-2.07194 -2.02261,-3.157238 -2.02261,-1.08531 -5.031861,-1.08531 -4.242549,0 -6.511819,1.578628 -2.219939,1.52929 -2.219939,4.34121 0,1.87461 1.134635,3.20658 1.183968,1.33196 2.910586,2.21993 1.726619,0.88798 4.834533,2.12128 3.749235,1.52929 6.018505,2.76259 2.26927,1.2333 3.84789,3.35457 1.62796,2.12128 1.62796,5.22919 0,5.82117 -4.43988,8.97842 -4.39055,3.10791 -11.790344,3.10791 z M 176.902,113.69412 q 1.13464,0 1.62796,0.49332 0.54265,0.49332 0.54265,1.28263 0,1.28263 -0.78931,2.26927 -0.73998,0.98664 -2.36793,1.03597 -3.89723,0.0493 -7.00514,-0.59198 -3.45324,7.35046 -8.33711,12.23432 -4.83453,4.83454 -9.5704,4.83454 -4.34121,0 -6.51182,-4.58788 -2.1706,-4.6372 -2.46659,-12.38232 -2.95992,8.58376 -6.70915,12.77698 -3.6999,4.19322 -7.89311,4.19322 -4.73587,0 -7.15314,-5.87051 -2.41727,-5.91983 -2.41727,-15.88489 0,-7.2518 1.28263,-15.934218 0.34533,-2.4666 1.2333,-3.403909 0.93731,-0.98664 2.91059,-0.98664 1.47996,0 2.26927,0.641316 0.83864,0.641313 0.83864,2.367933 0,0.34532 -0.0987,1.33196 -1.47996,10.113058 -1.47996,17.216858 0,6.61048 1.13464,10.21172 1.13463,3.60123 3.05858,3.60123 1.72662,0 4.14388,-3.60123 2.4666,-3.65057 4.88387,-10.75437 2.41726,-7.15314 4.09455,-17.019528 0.39466,-2.26927 1.43063,-3.107913 1.0853,-0.887976 2.91058,-0.887976 1.52929,0 2.21994,0.690648 0.73998,0.641311 0.73998,1.973281 0,0.78931 -0.0987,1.2333 -1.3813,8.041108 -1.3813,16.082218 0,5.47584 0.34533,8.73175 0.39465,3.25591 1.43062,4.98253 1.08531,1.67729 3.10792,1.67729 2.36793,0 5.27852,-3.5519 2.91058,-3.60124 5.32785,-8.92909 -3.00925,-1.87461 -4.53854,-4.83453 -1.52929,-3.00925 -1.52929,-6.90647 0,-3.89723 1.18396,-6.561158 1.2333,-2.71325 3.30525,-4.045217 2.12127,-1.331963 4.68653,-1.331963 3.15725,0 4.98253,2.26927 1.87462,2.26927 1.87462,6.215828 0,5.57451 -2.41727,12.38232 2.51593,0.44399 5.91983,0.44399 z m -14.55292,-9.7184 q 0,4.83453 3.10791,7.15314 1.92395,-5.52518 1.92395,-9.12642 0,-2.071938 -0.54266,-3.009248 -0.54265,-0.98664 -1.47995,-0.98664 -1.33197,0 -2.17061,1.57863 -0.83864,1.529288 -0.83864,4.390538 z m 28.31658,31.27647 q -4.39054,0 -7.94245,-1.97328 -3.50256,-1.97328 -5.57451,-5.77184 -2.07194,-3.8479 -2.07194,-9.17575 0,-7.49846 2.71326,-13.22096 2.76259,-5.722508 7.44912,-8.830418 4.73587,-3.107919 10.45838,-3.107919 4.39055,0 7.89312,1.973279 3.5519,1.97328 5.62384,5.821168 2.07194,3.79856 2.07194,9.12641 0,7.49846 -2.76259,13.22097 -2.71326,5.72251 -7.44912,8.83042 -4.68654,3.10792 -10.40905,3.10792 z m 0.49332,-5.82118 q 3.84789,0 6.75848,-2.36793 2.95992,-2.36793 4.53854,-6.56115 1.57862,-4.24255 1.57862,-9.5704 0,-5.87051 -2.4666,-8.87976 -2.46659,-3.058578 -6.36382,-3.058578 -3.79856,0 -6.70915,2.367938 -2.91058,2.3186 -4.53854,6.56115 -1.62795,4.19322 -1.62795,9.5704 0,5.8705 2.4666,8.92908 2.4666,3.00925 6.36382,3.00925 z m 39.76156,5.82118 q -4.39054,0 -7.94244,-1.97328 -3.50257,-1.97328 -5.57452,-5.77184 -2.07194,-3.8479 -2.07194,-9.17575 0,-7.49846 2.71326,-13.22096 2.76259,-5.722508 7.44913,-8.830418 4.73587,-3.107919 10.45837,-3.107919 4.39055,0 7.89312,1.973279 3.5519,1.97328 5.62384,5.821168 2.07194,3.79856 2.07194,9.12641 0,7.49846 -2.76259,13.22097 -2.71325,5.72251 -7.44912,8.83042 -4.68654,3.10792 -10.40905,3.10792 z m 0.49332,-5.82118 q 3.8479,0 6.75848,-2.36793 2.95992,-2.36793 4.53854,-6.56115 1.57862,-4.24255 1.57862,-9.5704 0,-5.87051 -2.46659,-8.87976 -2.4666,-3.058578 -6.36383,-3.058578 -3.79856,0 -6.70914,2.367938 -2.91059,2.3186 -4.53854,6.56115 -1.62796,4.19322 -1.62796,9.5704 0,5.8705 2.4666,8.92908 2.4666,3.00925 6.36382,3.00925 z m 61.61562,-23.82733 q 0,4.19321 -2.1706,7.69578 -2.17061,3.50257 -6.31449,5.72251 -4.14389,2.21994 -9.8664,2.61459 l -2.12127,11.88901 q -1.2333,6.85714 -6.70915,6.85714 -3.00925,0 -5.57451,-1.77595 -2.51593,-1.77595 -4.04522,-5.42652 -1.52929,-3.65056 -1.52929,-8.97841 0,-10.01439 3.20658,-16.9702 3.25591,-7.00514 8.68242,-10.458378 5.47585,-3.502565 12.037,-3.502565 4.63721,0 7.84378,1.627955 3.25591,1.62795 4.88387,4.43988 1.67728,2.762588 1.67728,6.265158 z m -17.46351,10.95169 q 10.11305,-1.28263 10.11305,-10.50771 0,-3.25591 -2.1706,-5.27852 -2.12128,-2.071938 -6.61049,-2.071938 -5.08119,0 -8.87975,3.206578 -3.74923,3.20658 -5.82117,8.92908 -2.02261,5.67318 -2.02261,12.97431 0,3.05858 0.59198,5.42652 0.64132,2.36793 1.57862,3.69989 0.98664,1.28263 1.87462,1.28263 1.2333,0 1.87461,-3.4039 l 1.62796,-9.32374 q -1.92395,-0.29599 -1.67729,-0.24666 -1.47996,-0.24666 -1.92395,-0.88798 -0.44398,-0.69064 -0.44398,-1.72662 0,-1.0853 0.59198,-1.72661 0.64132,-0.64132 1.72662,-0.64132 0.49332,0 0.73998,0.0493 1.18396,0.19733 1.82528,0.24666 0.64132,-3.84789 1.82528,-10.31038 0.29599,-1.67729 1.33197,-2.36793 1.0853,-0.73998 2.51593,-0.73998 1.62795,0 2.3186,0.64131 0.73998,0.59199 0.73998,1.92395 0,0.78931 -0.0987,1.28263 z"
       id="text1"
       aria-label="SWOOP" />
  </g>
</svg>
