<?xml version="1.0" encoding="UTF-8" standalone="no"?>
<!-- Created with Inkscape (http://www.inkscape.org/) -->

<svg
   width="110.52249mm"
   height="35.479286mm"
   viewBox="0 0 110.52249 35.479286"
   version="1.1"
   id="svg1"
   inkscape:version="1.3 (0e150ed6c4, 2023-07-21)"
   sodipodi:docname="logo-white.svg"
   inkscape:export-filename="uni/wd/wd-project/images/logo-white.svg"
   inkscape:export-xdpi="96"
   inkscape:export-ydpi="96"
   xmlns:inkscape="http://www.inkscape.org/namespaces/inkscape"
   xmlns:sodipodi="http://sodipodi.sourceforge.net/DTD/sodipodi-0.dtd"
   xmlns="http://www.w3.org/2000/svg"
   xmlns:svg="http://www.w3.org/2000/svg">
  <sodipodi:namedview
     id="namedview1"
     pagecolor="#ffffff"
     bordercolor="#000000"
     borderopacity="0.25"
     inkscape:showpageshadow="2"
     inkscape:pageopacity="0.0"
     inkscape:pagecheckerboard="true"
     inkscape:deskcolor="#d1d1d1"
     inkscape:document-units="mm"
     inkscape:zoom="1.4342733"
     inkscape:cx="209.86237"
     inkscape:cy="31.723382"
     inkscape:window-width="1920"
     inkscape:window-height="1011"
     inkscape:window-x="0"
     inkscape:window-y="32"
     inkscape:window-maximized="1"
     inkscape:current-layer="g2" />
  <defs
     id="defs1" />
  <g
     inkscape:label="Layer 1"
     inkscape:groupmode="layer"
     id="layer1"
     transform="translate(-52.416128,-162.6467)">
    <g
       id="g2">
      <path
         style="font-size:96px;font-family:Pacifico;-inkscape-font-specification:Pacifico;white-space:pre;fill:#ffffff"
         d="m 247.55606,727.74453 q -12.768,0 -20.448,-4.8 -7.68,-4.896 -7.68,-14.88 0,-5.28 1.824,-8.064 1.824,-2.784 5.376,-2.784 2.592,0 4.224,1.344 1.632,1.344 1.632,3.456 0,1.92 -0.288,3.36 0,0.384 -0.192,1.344 -0.096,0.96 -0.096,2.016 0,4.32 4.32,6.432 4.416,2.112 12.288,2.112 8.16,0 12.768,-2.88 4.608,-2.976 4.608,-8.256 0,-3.264 -2.112,-5.568 -2.112,-2.4 -5.28,-3.936 -3.168,-1.632 -8.928,-3.936 -7.392,-2.88 -12.096,-5.472 -4.608,-2.592 -7.968,-7.008 -3.264,-4.512 -3.264,-11.136 0,-6.912 3.648,-12.288 3.744,-5.376 10.656,-8.352 7.008,-2.976 16.416,-2.976 7.008,0 12.864,2.112 5.856,2.016 9.312,6.24 3.552,4.224 3.552,10.368 0,6.048 -1.824,9.12 -1.824,3.072 -5.376,3.072 -2.496,0 -4.224,-1.536 -1.632,-1.536 -1.632,-3.648 0,-1.824 0.288,-3.36 0.288,-2.88 0.288,-3.648 0,-4.032 -3.936,-6.144 -3.936,-2.112 -9.792,-2.112 -8.256,0 -12.672,3.072 -4.32,2.976 -4.32,8.448 0,3.648 2.208,6.24 2.304,2.592 5.664,4.32 3.36,1.728 9.408,4.128 7.296,2.976 11.712,5.376 4.416,2.4 7.488,6.528 3.168,4.128 3.168,10.176 0,11.328 -8.64,17.472 -8.544,6.048 -22.944,6.048 z m 161.66408,-42.24 q 2.208,0 3.168,0.96 1.056,0.96 1.056,2.496 0,2.496 -1.536,4.416 -1.44,1.92 -4.608,2.016 -7.584,0.096 -13.632,-1.152 -6.72,14.304 -16.224,23.808 -9.408,9.408 -18.624,9.408 -8.448,0 -12.672,-8.928 -4.224,-9.024 -4.8,-24.096 -5.76,16.704 -13.056,24.864 -7.2,8.16 -15.36,8.16 -9.216,0 -13.92,-11.424 -4.704,-11.52 -4.704,-30.912 0,-14.112 2.496,-31.008 0.672,-4.8 2.4,-6.624 1.824,-1.92 5.664,-1.92 2.88,0 4.416,1.248 1.632,1.248 1.632,4.608 0,0.672 -0.192,2.592 -2.88,19.68 -2.88,33.504 0,12.864 2.208,19.872 2.208,7.008 5.952,7.008 3.36,0 8.064,-7.008 4.8,-7.104 9.504,-20.928 4.704,-13.92 7.968,-33.12 0.768,-4.416 2.784,-6.048 2.112,-1.728 5.664,-1.728 2.976,0 4.32,1.344 1.44,1.248 1.44,3.84 0,1.536 -0.192,2.4 -2.688,15.648 -2.688,31.296 0,10.656 0.672,16.992 0.768,6.336 2.784,9.696 2.112,3.264 6.048,3.264 4.608,0 10.272,-6.912 5.664,-7.008 10.368,-17.376 -5.856,-3.648 -8.832,-9.408 -2.976,-5.856 -2.976,-13.44 0,-7.584 2.304,-12.768 2.4,-5.28 6.432,-7.872 4.128,-2.592 9.12,-2.592 6.144,0 9.696,4.416 3.648,4.416 3.648,12.096 0,10.848 -4.704,24.096 4.896,0.864 11.52,0.864 z m -28.32,-18.912 q 0,9.408 6.048,13.92 3.744,-10.752 3.744,-17.76 0,-4.032 -1.056,-5.856 -1.056,-1.92 -2.88,-1.92 -2.592,0 -4.224,3.072 -1.632,2.976 -1.632,8.544 z m 55.10409,60.864 q -8.544,0 -15.456,-3.84 -6.816,-3.84 -10.848,-11.232 -4.032,-7.488 -4.032,-17.856 0,-14.592 5.28,-25.728 5.376,-11.136 14.496,-17.184 9.216,-6.048 20.352,-6.048 8.544,0 15.36,3.84 6.912,3.84 10.944,11.328 4.032,7.392 4.032,17.76 0,14.592 -5.376,25.728 -5.28,11.136 -14.496,17.184 -9.12,6.048 -20.256,6.048 z m 0.96,-11.328 q 7.488,0 13.152,-4.608 5.76,-4.608 8.832,-12.768 3.072,-8.256 3.072,-18.624 0,-11.424 -4.8,-17.28 -4.8,-5.952 -12.384,-5.952 -7.392,0 -13.056,4.608 -5.664,4.512 -8.832,12.768 -3.168,8.16 -3.168,18.624 0,11.424 4.8,17.376 4.8,5.856 12.384,5.856 z m 77.376,11.328 q -8.544,0 -15.456,-3.84 -6.816,-3.84 -10.848,-11.232 -4.032,-7.488 -4.032,-17.856 0,-14.592 5.28,-25.728 5.376,-11.136 14.496,-17.184 9.216,-6.048 20.352,-6.048 8.544,0 15.36,3.84 6.912,3.84 10.944,11.328 4.032,7.392 4.032,17.76 0,14.592 -5.376,25.728 -5.28,11.136 -14.496,17.184 -9.12,6.048 -20.256,6.048 z m 0.96,-11.328 q 7.488,0 13.152,-4.608 5.76,-4.608 8.832,-12.768 3.072,-8.256 3.072,-18.624 0,-11.424 -4.8,-17.28 -4.8,-5.952 -12.384,-5.952 -7.392,0 -13.056,4.608 -5.664,4.512 -8.832,12.768 -3.168,8.16 -3.168,18.624 0,11.424 4.8,17.376 4.8,5.856 12.384,5.856 z m 119.904,-46.368 q 0,8.16 -4.224,14.976 -4.224,6.816 -12.288,11.136 -8.064,4.32 -19.2,5.088 l -4.128,23.136 q -2.4,13.344 -13.056,13.344 -5.856,0 -10.848,-3.456 -4.896,-3.456 -7.872,-10.56 -2.976,-7.104 -2.976,-17.472 0,-19.488 6.24,-33.024 6.336,-13.632 16.896,-20.352 10.656,-6.816 23.424,-6.816 9.024,0 15.264,3.168 6.336,3.168 9.504,8.64 3.264,5.376 3.264,12.192 z m -33.984,21.312 q 19.68,-2.496 19.68,-20.448 0,-6.336 -4.224,-10.272 -4.128,-4.032 -12.864,-4.032 -9.888,0 -17.28,6.24 -7.296,6.24 -11.328,17.376 -3.936,11.04 -3.936,25.248 0,5.952 1.152,10.56 1.248,4.608 3.072,7.2 1.92,2.496 3.648,2.496 2.4,0 3.648,-6.624 l 3.168,-18.144 q -3.744,-0.576 -3.264,-0.48 -2.88,-0.48 -3.744,-1.728 -0.864,-1.344 -0.864,-3.36 0,-2.112 1.152,-3.36 1.248,-1.248 3.36,-1.248 0.96,0 1.44,0.096 2.304,0.384 3.552,0.48 1.248,-7.488 3.552,-20.064 0.576,-3.264 2.592,-4.608 2.112,-1.44 4.896,-1.44 3.168,0 4.512,1.248 1.44,1.152 1.44,3.744 0,1.536 -0.192,2.496 z"
         id="text1"
         transform="matrix(0.26458333,0,0,0.26458333,-5.3833929,-7.7535683)"
         aria-label="SWOOP" />
      <path
         style="font-size:8.8659px;font-family:Poppins;-inkscape-font-specification:Poppins;letter-spacing:-0.437199px;fill:#ffffff;stroke-width:0.166236"
         d="m 57.724348,187.80104 -2.012559,3.8478 v 2.33174 h -0.806797 v -2.33174 l -2.021425,-3.8478 h 0.895456 l 1.524934,3.12967 1.524935,-3.12967 z m 2.532874,6.25933 q -0.682674,0 -1.241226,-0.31031 -0.549686,-0.3103 -0.868858,-0.87772 -0.310306,-0.57629 -0.310306,-1.32989 0,-0.74473 0.319172,-1.31215 0.328038,-0.57628 0.88659,-0.87772 0.558552,-0.31031 1.250092,-0.31031 0.69154,0 1.250092,0.31031 0.558551,0.30144 0.877724,0.86885 0.328038,0.56742 0.328038,1.32102 0,0.7536 -0.336904,1.32989 -0.328038,0.56742 -0.895456,0.87772 -0.567418,0.31031 -1.258958,0.31031 z m 0,-0.70927 q 0.434429,0 0.815663,-0.20392 0.381234,-0.20391 0.611747,-0.61175 0.239379,-0.40783 0.239379,-0.99298 0,-0.58515 -0.230513,-0.99298 -0.230513,-0.40783 -0.602881,-0.60288 -0.372368,-0.20391 -0.806797,-0.20391 -0.443295,0 -0.815663,0.20391 -0.363502,0.19505 -0.585149,0.60288 -0.221648,0.40783 -0.221648,0.99298 0,0.59402 0.212782,1.00185 0.221647,0.40783 0.585149,0.61175 0.363502,0.19505 0.797931,0.19505 z m 7.426849,-4.22904 v 4.85852 h -0.806796 v -0.71814 q -0.230514,0.37237 -0.647211,0.58515 -0.407832,0.20391 -0.904322,0.20391 -0.567418,0 -1.019578,-0.23051 -0.452161,-0.23938 -0.718138,-0.70927 -0.257111,-0.4699 -0.257111,-1.1437 v -2.84596 h 0.797931 v 2.73957 q 0,0.71813 0.363501,1.10823 0.363502,0.38124 0.992981,0.38124 0.647211,0 1.019579,-0.39897 0.372368,-0.39896 0.372368,-1.16143 v -2.66864 z m 1.734941,0.78907 q 0.212781,-0.4167 0.602881,-0.64721 0.398966,-0.23052 0.966383,-0.23052 v 0.8334 h -0.212781 q -1.356483,0 -1.356483,1.47174 v 2.64204 h -0.806797 v -4.85852 h 0.806797 z m 4.78204,-2.11009 v 3.90987 q 0,0.82452 0.398966,1.22349 0.407831,0.39896 1.125969,0.39896 0.709272,0 1.108238,-0.39896 0.407831,-0.39897 0.407831,-1.22349 v -3.90987 h 0.806797 v 3.901 q 0,0.77133 -0.310307,1.30329 -0.310306,0.52308 -0.84226,0.7802 -0.523088,0.25711 -1.179165,0.25711 -0.656076,0 -1.18803,-0.25711 -0.523088,-0.25712 -0.833395,-0.7802 -0.301441,-0.53196 -0.301441,-1.30329 v -3.901 z m 8.109523,6.17954 -2.544513,-2.81936 v 2.81936 h -0.806797 v -6.17954 h 0.806797 v 2.86369 l 2.553379,-2.86369 h 1.019578 l -2.801624,3.0942 2.828222,3.08534 z m 5.411534,0.0621 q -0.611747,0 -1.099372,-0.21278 -0.478758,-0.22165 -0.753601,-0.60289 -0.274843,-0.3901 -0.283709,-0.89545 h 0.859992 q 0.04433,0.43443 0.354636,0.73587 0.319173,0.29257 0.922054,0.29257 0.576283,0 0.904322,-0.28371 0.336904,-0.29257 0.336904,-0.74473 0,-0.35464 -0.19505,-0.57629 -0.19505,-0.22164 -0.487625,-0.3369 -0.292574,-0.11526 -0.789065,-0.24824 -0.611747,-0.15959 -0.984115,-0.31918 -0.363501,-0.15958 -0.629479,-0.49649 -0.257111,-0.34577 -0.257111,-0.92205 0,-0.50536 0.257111,-0.89546 0.257112,-0.3901 0.718138,-0.60288 0.469893,-0.21278 1.072774,-0.21278 0.868859,0 1.418544,0.43443 0.558552,0.43443 0.629479,1.15257 h -0.88659 q -0.04433,-0.35464 -0.372368,-0.62062 -0.328038,-0.27484 -0.868858,-0.27484 -0.505356,0 -0.824528,0.26598 -0.319173,0.25711 -0.319173,0.727 0,0.33691 0.186184,0.54969 0.19505,0.21278 0.469893,0.32804 0.283709,0.10639 0.789065,0.24824 0.611747,0.16845 0.984115,0.3369 0.372368,0.15959 0.638345,0.50536 0.265977,0.33691 0.265977,0.92205 0,0.45217 -0.23938,0.85113 -0.239379,0.39897 -0.709272,0.64721 -0.469892,0.24825 -1.108237,0.24825 z m 5.520687,-0.0621 -1.906168,-2.14555 v 2.14555 h -0.806797 v -6.56077 h 0.806797 v 3.85667 l 1.870705,-2.15442 h 1.125969 l -2.287402,2.42039 2.296268,2.43813 z m 5.60047,-4.85852 -2.925747,7.14592 h -0.833394 l 0.957517,-2.3406 -1.959364,-4.80532 h 0.895456 l 1.524935,3.93646 1.507203,-3.93646 z m 0.06816,2.41153 q 0,-0.74474 0.301441,-1.30329 0.30144,-0.56742 0.824523,-0.87772 0.53196,-0.31031 1.18803,-0.31031 0.56742,0 1.05505,0.26598 0.48762,0.25711 0.74473,0.68267 v -2.57111 h 0.81566 v 6.56077 h -0.81566 v -0.91319 q -0.23938,0.43443 -0.70927,0.71814 -0.46989,0.27484 -1.09937,0.27484 -0.64721,0 -1.17917,-0.31917 -0.523083,-0.31918 -0.824523,-0.89546 -0.301441,-0.57628 -0.301441,-1.31215 z m 4.113774,0.009 q 0,-0.54968 -0.22165,-0.95751 -0.22164,-0.40784 -0.60288,-0.62062 -0.37237,-0.22164 -0.82453,-0.22164 -0.45216,0 -0.82453,0.21278 -0.37236,0.21278 -0.594008,0.62061 -0.221647,0.40783 -0.221647,0.95752 0,0.55855 0.221647,0.97525 0.221648,0.40783 0.594008,0.62948 0.37237,0.21278 0.82453,0.21278 0.45216,0 0.82453,-0.21278 0.38124,-0.22165 0.60288,-0.62948 0.22165,-0.4167 0.22165,-0.96639 z m 2.16052,-3.20945 q -0.23052,0 -0.3901,-0.15959 -0.15959,-0.15959 -0.15959,-0.3901 0,-0.23051 0.15959,-0.3901 0.15958,-0.15958 0.3901,-0.15958 0.22164,0 0.37237,0.15958 0.15958,0.15959 0.15958,0.3901 0,0.23051 -0.15958,0.3901 -0.15073,0.15959 -0.37237,0.15959 z m 0.3901,0.78906 v 4.85852 h -0.8068 v -4.85852 z m 2.74566,4.11378 1.5072,-4.11378 h 0.85999 l -1.90617,4.85852 h -0.93978 l -1.90617,-4.85852 h 0.86886 z m 3.14463,-4.90284 q -0.23051,0 -0.3901,-0.15959 -0.15959,-0.15959 -0.15959,-0.3901 0,-0.23051 0.15959,-0.3901 0.15959,-0.15958 0.3901,-0.15958 0.22165,0 0.37237,0.15958 0.15958,0.15959 0.15958,0.3901 0,0.23051 -0.15958,0.3901 -0.15072,0.15959 -0.37237,0.15959 z m 0.3901,0.78906 v 4.85852 h -0.8068 v -4.85852 z m 3.30421,-0.0887 q 0.88659,0 1.43628,0.54082 0.54968,0.53196 0.54968,1.54267 v 2.86369 h -0.79793 v -2.74843 q 0,-0.72701 -0.3635,-1.10824 -0.3635,-0.3901 -0.99298,-0.3901 -0.63834,0 -1.01958,0.39896 -0.37237,0.39897 -0.37237,1.16144 v 2.68637 h -0.80679 v -4.85852 h 0.80679 v 0.69154 q 0.23938,-0.37237 0.64722,-0.57628 0.41669,-0.20392 0.91318,-0.20392 z m 4.87347,0.009 q 0.62948,0 1.09937,0.27484 0.47876,0.27485 0.70927,0.69154 v -0.88659 h 0.81567 v 4.96491 q 0,0.66494 -0.28371,1.17916 -0.28371,0.52309 -0.81566,0.81566 -0.52309,0.29258 -1.2235,0.29258 -0.95752,0 -1.59586,-0.45216 -0.63835,-0.45216 -0.7536,-1.23236 h 0.79793 q 0.13299,0.44329 0.54968,0.70927 0.4167,0.27484 1.00185,0.27484 0.66494,0 1.08164,-0.41669 0.42556,-0.4167 0.42556,-1.1703 v -1.01958 q -0.23938,0.42556 -0.70927,0.70927 -0.46989,0.28371 -1.09937,0.28371 -0.64721,0 -1.17916,-0.31917 -0.52309,-0.31918 -0.82453,-0.89546 -0.30144,-0.57628 -0.30144,-1.31215 0,-0.74474 0.30144,-1.30329 0.30144,-0.56742 0.82453,-0.87772 0.53195,-0.31031 1.17916,-0.31031 z m 1.80864,2.50018 q 0,-0.54968 -0.22164,-0.95751 -0.22165,-0.40784 -0.60288,-0.62062 -0.37237,-0.22164 -0.82453,-0.22164 -0.45216,0 -0.82453,0.21278 -0.37237,0.21278 -0.59402,0.62061 -0.22164,0.40783 -0.22164,0.95752 0,0.55855 0.22164,0.97525 0.22165,0.40783 0.59402,0.62948 0.37237,0.21278 0.82453,0.21278 0.45216,0 0.82453,-0.21278 0.38123,-0.22165 0.60288,-0.62948 0.22164,-0.4167 0.22164,-0.96639 z m 9.94201,-3.69708 v 6.13521 h -0.8068 V 189.406 l -2.03915,4.57481 h -0.56742 l -2.04802,-4.58367 v 4.58367 h -0.8068 v -6.13521 h 0.86886 l 2.26967,5.0713 2.26967,-5.0713 z m 0.62671,3.68822 q 0,-0.74474 0.30144,-1.30329 0.30144,-0.56742 0.82453,-0.87772 0.53195,-0.31031 1.17917,-0.31031 0.63834,0 1.10823,0.27484 0.4699,0.27485 0.70041,0.69154 v -0.88659 h 0.81566 v 4.85852 h -0.81566 v -0.90433 q -0.23938,0.42557 -0.71814,0.70928 -0.46989,0.27484 -1.09937,0.27484 -0.64721,0 -1.1703,-0.31917 -0.52309,-0.31918 -0.82453,-0.89546 -0.30144,-0.57628 -0.30144,-1.31215 z m 4.11378,0.009 q 0,-0.54968 -0.22165,-0.95751 -0.22165,-0.40784 -0.60288,-0.62062 -0.37237,-0.22164 -0.82453,-0.22164 -0.45216,0 -0.82453,0.21278 -0.37236,0.21278 -0.59401,0.62061 -0.22165,0.40783 -0.22165,0.95752 0,0.55855 0.22165,0.97525 0.22165,0.40783 0.59401,0.62948 0.37237,0.21278 0.82453,0.21278 0.45216,0 0.82453,-0.21278 0.38123,-0.22165 0.60288,-0.62948 0.22165,-0.4167 0.22165,-0.96639 z m 3.74751,-2.50018 q 0.62948,0 1.09937,0.27484 0.47876,0.27485 0.70927,0.69154 v -0.88659 h 0.81566 v 4.96491 q 0,0.66494 -0.2837,1.17916 -0.28371,0.52309 -0.81567,0.81566 -0.52309,0.29258 -1.22349,0.29258 -0.95752,0 -1.59586,-0.45216 -0.63835,-0.45216 -0.75361,-1.23236 h 0.79794 q 0.13298,0.44329 0.54968,0.70927 0.4167,0.27484 1.00185,0.27484 0.66494,0 1.08164,-0.41669 0.42556,-0.4167 0.42556,-1.1703 v -1.01958 q -0.23938,0.42556 -0.70927,0.70927 -0.46989,0.28371 -1.09937,0.28371 -0.64721,0 -1.17917,-0.31917 -0.52308,-0.31918 -0.82453,-0.89546 -0.30144,-0.57628 -0.30144,-1.31215 0,-0.74474 0.30144,-1.30329 0.30145,-0.56742 0.82453,-0.87772 0.53196,-0.31031 1.17917,-0.31031 z m 1.80864,2.50018 q 0,-0.54968 -0.22165,-0.95751 -0.22164,-0.40784 -0.60288,-0.62062 -0.37236,-0.22164 -0.82453,-0.22164 -0.45216,0 -0.82452,0.21278 -0.37237,0.21278 -0.59402,0.62061 -0.22165,0.40783 -0.22165,0.95752 0,0.55855 0.22165,0.97525 0.22165,0.40783 0.59402,0.62948 0.37236,0.21278 0.82452,0.21278 0.45217,0 0.82453,-0.21278 0.38124,-0.22165 0.60288,-0.62948 0.22165,-0.4167 0.22165,-0.96639 z m 1.44238,-0.009 q 0,-0.74474 0.30144,-1.30329 0.30145,-0.56742 0.82453,-0.87772 0.53196,-0.31031 1.17917,-0.31031 0.63834,0 1.10824,0.27484 0.46989,0.27485 0.7004,0.69154 v -0.88659 h 0.81566 v 4.85852 h -0.81566 v -0.90433 q -0.23938,0.42557 -0.71814,0.70928 -0.46989,0.27484 -1.09937,0.27484 -0.64721,0 -1.1703,-0.31917 -0.52308,-0.31918 -0.82453,-0.89546 -0.30144,-0.57628 -0.30144,-1.31215 z m 4.11378,0.009 q 0,-0.54968 -0.22165,-0.95751 -0.22164,-0.40784 -0.60288,-0.62062 -0.37237,-0.22164 -0.82453,-0.22164 -0.45216,0 -0.82452,0.21278 -0.37237,0.21278 -0.59402,0.62061 -0.22165,0.40783 -0.22165,0.95752 0,0.55855 0.22165,0.97525 0.22165,0.40783 0.59402,0.62948 0.37236,0.21278 0.82452,0.21278 0.45216,0 0.82453,-0.21278 0.38124,-0.22165 0.60288,-0.62948 0.22165,-0.4167 0.22165,-0.96639 z m 2.3467,1.77318 h 2.38493 v 0.66495 h -3.30699 V 193.316 l 2.35833,-3.53749 h -2.34059 v -0.65608 h 3.27151 v 0.65608 z m 3.4106,-4.98263 q -0.23051,0 -0.3901,-0.15959 -0.15959,-0.15959 -0.15959,-0.3901 0,-0.23051 0.15959,-0.3901 0.15959,-0.15958 0.3901,-0.15958 0.22165,0 0.37237,0.15958 0.15958,0.15959 0.15958,0.3901 0,0.23051 -0.15958,0.3901 -0.15072,0.15959 -0.37237,0.15959 z m 0.3901,0.78906 v 4.85852 h -0.8068 v -4.85852 z m 3.30421,-0.0887 q 0.88659,0 1.43628,0.54082 0.54968,0.53196 0.54968,1.54267 v 2.86369 h -0.79793 v -2.74843 q 0,-0.72701 -0.3635,-1.10824 -0.3635,-0.3901 -0.99298,-0.3901 -0.63835,0 -1.01958,0.39896 -0.37237,0.39897 -0.37237,1.16144 v 2.68637 h -0.80679 v -4.85852 h 0.80679 v 0.69154 q 0.23938,-0.37237 0.64721,-0.57628 0.4167,-0.20392 0.91319,-0.20392 z m 7.30273,2.33174 q 0,0.23051 -0.0266,0.48762 h -3.88326 q 0.0443,0.71814 0.48763,1.12597 0.45216,0.39896 1.0905,0.39896 0.52309,0 0.86886,-0.23937 0.35464,-0.24825 0.49649,-0.65608 h 0.86886 q -0.19505,0.7004 -0.7802,1.1437 -0.58515,0.43443 -1.45401,0.43443 -0.69154,0 -1.24123,-0.31031 -0.54082,-0.3103 -0.85112,-0.87772 -0.31031,-0.57629 -0.31031,-1.32989 0,-0.7536 0.30144,-1.32102 0.30144,-0.56741 0.84226,-0.86885 0.54969,-0.31031 1.25896,-0.31031 0.69154,0 1.2235,0.30144 0.53195,0.30144 0.81566,0.83339 0.29257,0.52309 0.29257,1.18804 z m -0.83339,-0.16846 q 0,-0.46102 -0.20392,-0.78906 -0.20391,-0.33691 -0.55855,-0.50536 -0.34577,-0.17732 -0.77133,-0.17732 -0.61175,0 -1.04618,0.3901 -0.42556,0.3901 -0.48762,1.08164 z"
         id="text2"
         transform="scale(0.99116097,1.0089179)"
         aria-label="Your UK Skydiving Magazine" />
    </g>
  </g>
</svg>
