<?xml version="1.0" encoding="utf-8"?>
<!-- Generator: Adobe Illustrator 26.5.0, SVG Export Plug-In . SVG Version: 6.00 Build 0)  -->
<svg version="1.1" id="Layer_1" xmlns="http://www.w3.org/2000/svg" xmlns:xlink="http://www.w3.org/1999/xlink" x="0px" y="0px"
	 viewBox="0 0 419.5 343.8" style="enable-background:new 0 0 419.5 343.8;" xml:space="preserve">
<style type="text/css">
	.st0{fill:#009FE3;}
	.st1{fill:#FFFFFF;}
	.st2{fill-rule:evenodd;clip-rule:evenodd;}
</style>
<g>
	
		<rect x="122.5" y="69.5" transform="matrix(0.9397 -0.3421 0.3421 0.9397 -46.2696 83.9575)" class="st0" width="184.9" height="207.4"/>
	<g>
		<path class="st1" d="M194.6,135.5l21.9,60.2l-19.5,7.1l-4.2-9.5l-0.3,0.1c-0.1,2.7-0.7,5.2-1.8,7.3c-1.1,2.2-2.6,4-4.5,5.6
			c-1.9,1.5-3.9,2.9-6.2,4.1c-2.3,1.2-4.7,2.2-7.2,3.1c-7.3,2.7-13.6,3.6-18.7,2.7c-5.1-0.9-9.7-3.4-13.6-7.4
			c-3.9-4.1-7.5-9.6-10.7-16.5c-3.2-6.9-6.4-15-9.8-24.2c-3.4-9.3-5.8-17.7-7.4-25.3c-1.5-7.5-1.6-14.3-0.3-20.3
			c1.3-6,4.1-11.2,8.6-15.7c4.5-4.5,10.9-8.3,19.4-11.4c5.1-1.8,10-2.9,14.8-3.1c4.8-0.2,9.3,0.6,13.5,2.5c4.2,1.9,8,4.8,11.5,8.9
			c3.5,4.1,6.4,9.5,8.9,16.2L161,130.1c-2.1-5.9-4.2-10-6.2-12.3c-2.2-2.8-5-3.6-8.4-2.4c-2.4,0.9-4.1,2.1-5,3.8
			c-1,1.6-1.3,4-0.9,7.2c0.4,3.1,1.4,7.2,2.9,12.2c1.6,5,3.7,11.2,6.4,18.7c2.7,7.4,5.1,13.6,7.1,18.4c2,4.8,3.9,8.6,5.6,11.2
			c1.7,2.7,3.4,4.3,5.2,5c1.7,0.7,3.7,0.6,5.8-0.2c1.6-0.6,2.8-1.4,3.8-2.4c1-1.1,1.6-2.6,1.8-4.6c0.2-2,0-4.6-0.7-7.8
			c-0.6-3.2-1.8-7.2-3.6-12l-10.2,3.7l-7.1-19.6L194.6,135.5z"/>
	</g>
	<g>
		<path class="st1" d="M195.2,110.7c-1.3-7.8-1.2-14.5,0.2-20.3c1.4-5.7,4.3-10.6,8.6-14.6c4.3-4,10.1-7.3,17.5-10
			c7.3-2.7,13.9-3.9,19.8-3.6c5.8,0.3,11.1,2.2,15.9,5.6c4.8,3.5,9.2,8.6,13.2,15.4c4,6.8,7.9,15.4,11.6,25.7
			c3.8,10.3,6.3,19.4,7.6,27.2c1.3,7.8,1.3,14.5-0.2,20.3c-1.4,5.7-4.3,10.5-8.7,14.3c-4.4,3.8-10.2,7.1-17.5,9.7
			c-7.4,2.7-13.9,3.9-19.7,3.8c-5.8-0.1-11.1-1.9-15.8-5.4c-4.8-3.5-9.2-8.6-13.2-15.4c-4-6.8-7.9-15.4-11.6-25.7
			C199.1,127.6,196.5,118.5,195.2,110.7 M239.7,145.5c2,4.8,3.9,8.6,5.6,11.2c1.7,2.7,3.4,4.3,5.1,5c1.7,0.7,3.6,0.6,5.8-0.2
			c2.2-0.8,3.7-2,4.6-3.6c0.9-1.6,1.1-4,0.7-7.1c-0.4-3.1-1.4-7.2-2.9-12.2c-1.6-5-3.7-11.2-6.4-18.7c-2.7-7.4-5.1-13.6-7.1-18.4
			c-2-4.8-3.9-8.6-5.6-11.2c-1.7-2.7-3.4-4.3-5.2-5c-1.7-0.7-3.6-0.6-5.8,0.2c-2.2,0.8-3.7,2-4.6,3.6c-0.9,1.6-1.1,4-0.7,7.1
			c0.4,3.1,1.4,7.2,2.9,12.2c1.6,5,3.7,11.2,6.4,18.7C235.3,134.5,237.7,140.7,239.7,145.5"/>
		<path class="st0" d="M26.9,292.1c-0.7-1.9-1.6-3.3-2.9-4.4c-1.2-1-2.6-1.3-4.2-0.7c-1.8,0.6-2.8,1.7-3.2,3.1
			c-0.4,1.4-0.3,2.8,0.2,4.3c0.7,2,2,3.4,3.7,4.1c1.8,0.7,3.8,1.2,6.1,1.3c2.3,0.2,4.8,0.3,7.4,0.3c2.6,0.1,5.2,0.5,7.7,1.2
			c2.5,0.7,4.9,2,7,3.9c2.2,1.9,4,4.7,5.3,8.5c2.4,6.7,2.3,12.2-0.4,16.6c-2.7,4.4-7.6,7.9-14.8,10.5c-3.4,1.2-6.5,2-9.3,2.4
			c-2.8,0.4-5.3,0.2-7.6-0.5c-2.3-0.7-4.3-2-6-3.9c-1.7-1.9-3.2-4.4-4.4-7.7l-0.8-2.2l15.8-5.7l0.5,1.5c1,2.7,2.2,4.4,3.5,5.1
			c1.4,0.7,2.9,0.8,4.4,0.2c1.7-0.6,2.8-1.7,3.3-3.2c0.5-1.5,0.4-3.1-0.2-4.8c-0.7-2-2-3.4-3.7-4.2c-1.7-0.7-3.6-1.2-5.8-1.3
			c-2.2-0.2-4.6-0.3-7.1-0.3c-2.5-0.1-5-0.5-7.4-1.2c-2.4-0.7-4.7-2-6.7-3.8c-2.1-1.8-3.8-4.6-5.1-8.2c-2.3-6.4-2.4-11.8-0.2-16.4
			c2.2-4.6,6.7-8.1,13.6-10.6c7.1-2.6,12.8-2.9,17.1-1c4.3,1.9,7.7,6.2,10.1,12.9l-15.2,5.5L26.9,292.1z"/>
		<path class="st1" d="M26.9,292.1l-0.3,0.1c-0.7-1.8-1.6-3.2-2.8-4.2c-0.8-0.6-1.6-0.9-2.4-0.9c-0.5,0-1,0.1-1.5,0.3
			c-1.7,0.6-2.7,1.6-3.1,2.9h0c-0.2,0.6-0.3,1.2-0.3,1.8c0,0.8,0.1,1.5,0.4,2.3c0.7,2,1.9,3.3,3.6,4c1.7,0.7,3.7,1.1,6,1.3
			c2.3,0.2,4.7,0.3,7.4,0.3c2.6,0.1,5.2,0.5,7.7,1.2c2.5,0.8,4.9,2.1,7.1,4c2.2,1.9,4,4.8,5.4,8.6c1.2,3.2,1.7,6.1,1.7,8.8
			c0,3-0.7,5.7-2.2,8c-2.7,4.5-7.7,8-14.9,10.6c-3.4,1.2-6.5,2-9.3,2.4c-1,0.1-2,0.2-2.9,0.2c-1.7,0-3.3-0.2-4.8-0.7
			c-2.3-0.7-4.4-2.1-6.1-4c-1.8-1.9-3.3-4.5-4.5-7.8l-0.8-2.2l-0.1-0.3l16.3-5.9l0.6,1.7c1,2.7,2.1,4.3,3.4,5
			c0.7,0.4,1.5,0.6,2.3,0.6c0.6,0,1.3-0.1,1.9-0.4c1.6-0.6,2.6-1.6,3.1-3v0c0.2-0.6,0.3-1.3,0.3-1.9c0-0.9-0.2-1.7-0.5-2.7
			c-0.7-2-1.9-3.3-3.5-4c-1.7-0.7-3.6-1.2-5.7-1.3c-2.2-0.2-4.6-0.3-7.1-0.3c-2.6-0.1-5.1-0.5-7.5-1.2c-2.4-0.7-4.7-2-6.8-3.8
			c-2.1-1.9-3.9-4.7-5.2-8.4C0.6,299.9,0,296.8,0,294c0-2.7,0.5-5.1,1.6-7.4c2.2-4.6,6.8-8.2,13.8-10.7c4.1-1.5,7.8-2.3,11-2.3
			c2.4,0,4.5,0.4,6.3,1.2c4.4,1.9,7.8,6.3,10.3,13.1l0.1,0.3l-15.7,5.7l-0.6-1.7L26.9,292.1l0.3-0.1l0.4,1.2l15-5.5l0.1,0.3
			l-0.3,0.1c-2.4-6.7-5.8-10.9-10-12.8c-1.8-0.8-3.8-1.2-6.1-1.2c-3.1,0-6.7,0.7-10.8,2.2c-6.8,2.5-11.3,6-13.4,10.5
			c-1,2.2-1.6,4.5-1.6,7.1c0,2.8,0.6,5.8,1.8,9c1.3,3.7,3,6.4,5.1,8.1c2.1,1.8,4.3,3,6.6,3.7c2.4,0.7,4.8,1.1,7.3,1.2
			c2.5,0.1,4.9,0.2,7.1,0.3c2.2,0.2,4.2,0.6,5.9,1.4c1.8,0.8,3,2.2,3.8,4.3c0.4,1,0.5,1.9,0.5,2.9c0,0.7-0.1,1.4-0.3,2.1
			c-0.5,1.6-1.7,2.7-3.4,3.3c-0.7,0.3-1.4,0.4-2.1,0.4c-0.9,0-1.7-0.2-2.5-0.6c-1.5-0.8-2.7-2.5-3.7-5.3l-0.4-1.2L11,329.2l0.7,1.9
			c1.2,3.2,2.6,5.8,4.3,7.6c1.7,1.8,3.7,3.1,5.9,3.8c1.4,0.5,3,0.7,4.7,0.7c0.9,0,1.8-0.1,2.8-0.2c2.8-0.4,5.8-1.2,9.2-2.4
			c7.1-2.6,12-6.1,14.7-10.4c1.4-2.3,2.1-4.8,2.1-7.7c0-2.6-0.6-5.5-1.7-8.6c-1.4-3.8-3.1-6.6-5.3-8.4c-2.1-1.9-4.5-3.1-6.9-3.9
			c-2.5-0.7-5-1.1-7.6-1.2c-2.6-0.1-5.1-0.2-7.4-0.3c-2.3-0.2-4.4-0.6-6.2-1.3c-1.8-0.7-3.1-2.2-3.9-4.3c-0.3-0.8-0.4-1.6-0.4-2.5
			c0-0.7,0.1-1.3,0.3-2c0.4-1.5,1.6-2.6,3.4-3.3c0.6-0.2,1.2-0.3,1.7-0.3c1,0,1.9,0.4,2.8,1.1c1.3,1.1,2.3,2.6,3,4.5L26.9,292.1z"/>
	</g>
	<g>
		<polygon class="st0" points="58.1,262 66.8,286 67,285.9 70.3,257.6 87.6,251.3 81.8,284.3 112.3,313 93.8,319.8 76.3,301.5 
			74.8,308 80.8,324.5 64.5,330.4 41.8,267.9 		"/>
		<polygon class="st1" points="58.1,262 58.3,261.9 67,285.9 66.8,286 66.7,285.7 66.7,285.7 70.1,257.4 88,250.8 82.1,284.2 
			112.8,313.1 93.7,320.1 76.4,302 75.1,308 81.1,324.7 64.4,330.8 41.4,267.8 58.2,261.7 58.3,261.9 58.1,262 58.2,262.3 
			42.1,268.1 64.7,330.1 80.4,324.3 74.5,308 76.1,300.9 93.8,319.5 111.8,312.9 81.5,284.4 87.3,251.7 70.6,257.8 67.2,286.1 
			66.9,286.3 66.6,286.4 57.8,262.1 58.1,262 58.2,262.3 		"/>
		<polygon class="st0" points="87.9,251.2 105.5,244.8 119.5,264.3 119.7,264.3 117.9,240.2 135.8,233.7 133.6,277.4 142.6,302 
			126.3,307.9 117.4,283.4 		"/>
		<polygon class="st1" points="87.9,251.2 87.8,250.9 105.6,244.4 119.8,264.2 119.5,264.3 119.5,264.1 119.6,264 119.7,264.3 
			119.4,264.3 117.6,240 136.1,233.3 133.9,277.4 142.9,302.2 126.1,308.3 117.1,283.5 87.4,251 87.8,250.9 87.9,251.2 88.1,251 
			117.6,283.2 126.5,307.6 142.2,301.9 133.4,277.5 135.5,234.1 118.2,240.4 120,264.4 119.6,264.6 119.4,264.6 105.4,245.1 
			88,251.4 87.9,251.2 88.1,251 		"/>
		<path class="st1" d="M166.6,222.5c4.7-1.7,8.7-2.2,12-1.4c3.3,0.8,6.1,2.4,8.4,4.8c2.4,2.4,4.4,5.4,6,9.1
			c1.7,3.7,3.2,7.5,4.7,11.6c1.5,4.1,2.8,8.1,3.8,11.9c1.1,3.9,1.5,7.5,1.2,10.9c-0.3,3.4-1.4,6.4-3.4,9.1c-2,2.7-5.4,4.9-10.1,6.6
			l-23.6,8.6L143,231.1L166.6,222.5z M180.9,274.8c1.6-0.6,2.8-1.2,3.5-2c0.8-0.8,1.1-2,1.1-3.5c0-1.6-0.4-3.7-1.2-6.3
			c-0.8-2.6-1.9-6-3.5-10.2c-1.5-4.2-2.8-7.6-3.9-10.1c-1.1-2.5-2.1-4.4-3.1-5.6c-1-1.2-2.1-1.9-3.1-2c-1.1-0.1-2.4,0.1-4,0.7
			l-3.2,1.2l14.2,39L180.9,274.8z"/>
		
			<rect x="203.7" y="208" transform="matrix(0.9397 -0.342 0.342 0.9397 -69.6979 87.191)" class="st1" width="17.3" height="66.5"/>
		<polygon class="st1" points="231.7,198.8 255.4,243.5 255.6,243.4 245,194 262.3,187.7 271.6,255.1 250.6,262.7 214.6,205 		"/>
		<polygon class="st1" points="303.7,172.6 308.6,185.9 287.8,193.5 291.7,204.1 311.1,197.1 315.8,209.8 296.4,216.9 300.9,229.3 
			322.4,221.5 327.3,234.8 289.5,248.6 266.7,186.1 		"/>
	</g>
	<path d="M213,41.7c1.2,4.9,33.8,180.2,33.8,180.3l-0.5,0.1c0,0-2-11-5.1-27.5C232,145,213.4,45.5,212.5,41.8L213,41.7z M248.8,39.6
		c0.3,1.3,0.8,13.4,1.4,31.1c1.7,52.8,4,154.3,4,154.3l-0.3,0l-0.3,0c0,0,8.1-44.9,16.5-89.7c4.2-22.4,8.6-44.9,12.1-61.7
		c1.8-8.4,3.3-15.4,4.5-20.3c0.6-2.5,1.1-4.4,1.6-5.7c0.2-0.7,0.4-1.2,0.6-1.5l0.7-0.7l0.1,0h0l0.3,0.6l0.1,1
		c0,16.7-30.3,181.4-30.3,181.5l-0.3,0l-0.2-0.2l68.1-100.5l0.5,0.3l-64.1,105.8l-0.2-0.1l-0.2-0.2c0,0,13.5-13.5,28.6-27
		c7.5-6.8,15.5-13.5,22.3-18.6c6.8-5.1,12.5-8.5,15.8-8.5l0.1,0l0,0.5h-0.1c-3,0-8.7,3.3-15.5,8.4c-10.2,7.6-22.9,19-33,28.5
		c-5.1,4.7-9.5,9-12.7,12.1c-3.2,3.1-5.1,5-5.1,5l-0.4-0.3l58.5-96.5l-62,91.5l-0.5-0.2c0,0,1.9-10.3,4.7-26
		c8.5-47.1,25.6-143,25.6-155.3l-0.1-0.9l0-0.2l0,0l0.1-0.1l0,0.1l-0.1,0l0.1-0.1l0,0.1l0.1-0.3l-0.1,0.3l0.1-0.2v0.2l-0.1,0
		l0.1-0.2v0.2v-0.1l0.1,0.1l-0.1,0v-0.1l0.1,0.1c-0.1,0-0.5,0.9-0.9,2.3c-3.3,10.8-12,55.1-19.8,96.6c-3.9,20.8-7.6,40.9-10.3,55.7
		c-2.7,14.9-4.5,24.6-4.5,24.6l-0.5,0c0,0-0.3-11.3-0.7-28.3c-0.6-25.5-1.6-63.8-2.5-96.3c-0.9-32.4-1.8-59-2.2-60.7L248.8,39.6z"/>
	<path class="st2" d="M288.2,22.5c5.5,0-3.2-7.1,1.1-6.5c15.7,10.1,54.1,14.9,63.8,30.1c2,0.2,0.1-1.7,1.4-3.7
		c7.8,8.4,14.1,21.4,23.6,25.8c1.2,3.3-1.8,2-0.7,5.3c13.4,12.9,23.5,27.2,27.7,44.1c4.5,5.4,6.5,11.9,9.9,17.8
		c-6.5,14.9,5.4,18.8,4,29.5c-0.6,4.6-3.6,4-4.5,8c3.7,8.1,7.9,16,1.6,28.5c-14.5,10.5-38.6-0.7-52.8,10.4
		c-9.6-6.4-13.6-0.4-21.3-2.6c-0.5-10.2-1.6-20.1-17.5-23.5c-1.8-42.1-8.1-103.6-37.7-134.5c-9.2-9.6-29-17.3-40.5-7.2
		c-7.3-2.9-12.4-0.7-18.9-1.7c-3,0.8-4.5,5.1-6.9,7.1c-3.4-1.6-6.3-2.1-8.2-0.4c-6.2-6.1-6.6-16.3-15.3-18.4
		c0.4-43.9,49.5-32.4,86.1-17.2C286.7,15.8,286.6,19.5,288.2,22.5"/>
	<g>
		<path class="st2" d="M249.5,214.2c4.7,9.3,16.1,15.7,17.8,26.4c-5.9-0.1-8.5-9.4-14.7-12.6c-2.7,1.4-4.1,5.9-6.2,8.8
			c-4.7-2.1,8.3-13.1-0.2-14C247.4,219.8,248.5,217,249.5,214.2"/>
		<path class="st2" d="M266.2,238.8c5.1,3.4-6.3,12.3-9,17.4C255,250.5,265.5,245.7,266.2,238.8"/>
		<path d="M400,192.7c-4.7,1.8-132.6,48.1-132.6,48.1l-0.2-0.5c0,0,8-2.9,20.1-7.3c36.2-13.1,109-39.5,112.5-40.9L400,192.7z"/>
		<path class="st2" d="M241.6,251c1.1,1.3,2.5-3.5,6.2-5.2c1.9-0.4,4,0.4,5.1,1.1l0.7,0.5c2,1.9,2.3,5,2.3,5
			c0.5,4.4-3.2,9.4-7.6,11.7c-2-0.2-3.5-3.1-5.6-3c-3.2,4.6-3.6,9.5-3.3,14.6c1.2,0.2,2.1-0.4,2.7-1.5c0.8,0.4,1.6,0.8,2.3,1.6
			c2.9-2.7,0.9-6.2,5-8.7c-2.4,3.6-3.4,10.2-3.6,11.7c-0.2,1.4-6,3.1-9.4,0.3c-4.1,1.9-6.7,4.8-9,8.5c-0.7,8.6,8,18.5-1.4,25.9
			c-1.7,0.1-3.1-1.9-4.9-0.7c-0.6-0.6-1.4-1-2-1.2c-10.1-3-16.8,7.6-18.9,15.9c-6.7-3-2.8-9.2-5.3-13.6c1.9-3.9-0.9-8.5,3.6-12.1
			c1.6,0.8,3.1,1.8,4.6,3.2c3.6-6.4,13,1.6,12.7-7.3c-0.2-4.9-5.9-10.3-6-15.3c-0.1-5.1,3.6-6.3,6.8-10.7c-0.4-0.1-0.8-0.3-1.1-0.8
			c-1.8,0.2-4,3-5.7,2.7c-2.4-2.7,0.9-4.7,1.9-7c-0.7-1.1-1.6-0.5-2.3-1.6c1.9-2-0.3-4-2.1-5c1.8-4,6.9-4.1,10-4.2
			c4-4.4,11.7-13.5,16-8.7c1.6,0,3.3-1.4,4.7,0.3c2.5-1.2,6.5-9.1,7.6-13.1l0.8,0.4c-0.5,1.3,0.1,1.8,0.9,0.4
			C247,235,241.5,247.5,241.6,251"/>
		<path class="st2" d="M259,260.6c6.3,4.3,1.2,13-5.2,16.5c-1.9-0.1-3.3-2.8-5.3-2.6c-3.3,4.5,3,8.5-6.8,17.3
			c-4.1,2-6.7,4.8-9.1,8.4c-1,8.2,7,17.2-2.4,24.6c-1.6,0.1-3.2,0-5.3-1c-0.6-0.6-0.7-0.4-1.3-0.5c-7.9-1.4-11.1-0.6-13.3,7.3
			c-6.4-2.6-2.7-6.7-3.3-8.9c2-3.8-3.7-6.8,0.8-10.4c1.5,0.7,3.8,1.9,5.2,3.1c3.7-6.2,8,4.2,8-4.3c0-4.7-5.4-9.6-5.2-14.3
			c0.1-4.9,3.7-6.1,7.1-10.4c-0.4-0.1-0.8-0.2-1.1-0.7c-1.8,0.2-2.6-2.8-3.2-3.8c1.9-2,3.6-1.4,1.9-2.3c1.9-3.9,3.3-2.7,6.4-3
			c4-4.3,15.3-13,19.5-7.1C247.6,268.4,254.4,259.5,259,260.6"/>
	</g>
</g>
</svg>
